<svg width="145" height="46" viewBox="0 0 145 46" fill="none" xmlns="http://www.w3.org/2000/svg">
<path d="M41.2369 0.0506817C44.2985 -0.260079 47.0149 0.857771 48.7855 3.41775C51.2126 6.96891 51.9101 11.6607 52.3983 15.8692C52.7723 19.8542 53.1082 23.813 53.1421 27.8313C53.1877 33.2224 53.53 40.8775 48.661 44.4062C45.3872 46.8828 39.467 46.5285 36.9889 42.9542C33.4511 37.8516 38.231 30.4335 38.8027 24.956C38.9569 23.4786 39.8542 19.3085 37.5555 18.8795C36.2144 18.6293 35.1718 21.9085 34.9843 22.8763C33.6909 27.4805 33.3267 33.568 29.5317 36.8758C28.7283 37.5761 27.0006 38.0516 26.0135 37.8009C19.7702 36.2156 19.3076 26.4878 18.1663 21.2595C17.7204 19.3886 17.5145 15.5244 16.1704 14.039C14.1622 11.8196 13.5648 16.3834 13.5422 17.4144C13.6238 21.5128 15.0679 25.7546 16.3965 29.5913C17.19 31.8828 18.0705 34.0085 18.2364 36.456C18.5181 40.6132 16.0019 44.2264 11.8113 44.9469C9.55325 45.3384 7.23236 44.8128 5.36326 43.4866C2.48566 41.4511 1.22119 37.9011 0.651915 34.5582C-0.766248 26.2302 -0.0998656 12.3941 4.9482 5.33002C6.51752 3.1339 8.7146 1.5117 11.4123 1.06488C12.9917 0.803306 14.6712 0.916145 16.1862 1.44319C24.7944 4.43785 23.4484 19.8862 26.3772 21.8974C26.5928 22.0455 26.8381 22.1071 27.0979 22.0576C27.7945 21.9249 28.1611 21.3506 28.4527 20.7548C29.1761 19.2765 29.5497 17.5158 30.0116 15.941C31.1572 12.0358 32.4498 7.94183 34.7715 4.55502C36.3582 2.24047 38.4369 0.569707 41.2369 0.0506817Z" fill="#F73875"/>
<path d="M90.4927 1.52743L90.5529 1.52015C97.5915 0.738605 99.7079 6.93281 100.224 12.7463C100.977 21.2278 100.39 31.835 94.8998 38.7486C88.2148 47.1676 72.4308 47.1281 64.4699 40.6057C59.3263 36.3937 57.5286 30.0632 56.8777 23.692C56.4577 18.6919 56.4815 11.6997 59.3428 7.42133C62.0728 3.33922 68.4032 2.98708 72.2303 5.72946C76.8378 9.03076 75.6968 15.6307 75.473 20.5345C75.3548 23.1254 75.2281 25.6358 75.663 28.2068C76.0726 31.119 77.7678 34.2886 81.2195 33.768C83.0488 33.492 84.3746 32.1472 84.9911 30.4186C86.6821 25.682 85.7479 20.2735 85.0101 15.4221C84.458 11.8004 83.4415 7.57861 85.711 4.3133C86.8837 2.6247 88.523 1.8686 90.4927 1.52743Z" fill="#F73875"/>
<path d="M110.755 1.84888C111.373 1.78059 111.996 1.7771 112.614 1.83854C114.256 2.00806 115.889 2.65027 117.174 3.69044C122.7 8.16353 119.994 17.1813 122.557 20.2244C122.791 20.5022 123.105 20.7302 123.479 20.7453C125.718 20.8353 126.185 13.8118 126.434 12.2238C126.604 11.1405 126.817 10.0634 127.162 9.02097C127.734 7.29659 128.691 5.74215 130.029 4.50629C131.747 2.91923 134.01 1.93829 136.373 2.03561C138.761 2.14128 141.01 3.18482 142.633 4.9395C145.515 8.07107 145.741 12.1453 143.151 15.5135C140.394 19.2144 135.879 20.3504 131.801 21.9315C130.872 22.2923 127.386 23.7355 127.703 24.9646C128.412 27.7137 133.633 28.3304 135.893 29.6779C137.339 30.5404 138.537 30.9803 139.707 32.256C143.018 35.5919 143.128 39.7529 139.758 43.0903C138.318 44.3046 136.751 44.9977 134.849 45.0651C133.454 45.1112 132.073 44.7804 130.849 44.1073C126.535 41.7499 125.956 36.2726 124.52 32.0638C124.298 31.4128 123.625 29.3934 122.719 29.4789C121.61 29.5835 121.349 31.5506 121.282 32.4741C121.022 35.9862 121.352 39.4396 118.812 42.2545C117.297 43.9378 115.172 44.9451 112.91 45.0521C110.853 45.151 108.841 44.4264 107.318 43.0384C105.87 41.7348 105.004 39.9067 104.91 37.9606C104.69 32.7276 109.783 29.6717 113.96 27.8215C114.626 27.5262 118.603 25.9109 118.36 24.876C118.081 23.6881 115.643 22.6787 114.564 22.1339C112.26 20.9705 109.757 19.8076 107.654 18.2621C100.413 13.4091 101.642 3.18165 110.755 1.84888Z" fill="#F73875"/>
</svg>
