<svg id="Layer_1" enable-background="new 0 0 48 48" viewBox="0 0 48 48" xmlns="http://www.w3.org/2000/svg"><g><path d="m24 .5c-12.96 0-23.5 10.54-23.5 23.5s10.54 23.5 23.5 23.5 23.5-10.54 23.5-23.5-10.54-23.5-23.5-23.5zm3.16 23.5c0 1.39-.91 2.56-2.16 2.98v-5.96c1.25.42 2.16 1.59 2.16 2.98zm-19.32 14.14c-3.11-3.55-5.06-8.12-5.29-13.14h7.26c.09 3.71.71 7.19 1.73 10.27-1.31.82-2.55 1.78-3.7 2.87zm3.7-25.41c-1.02 3.08-1.63 6.56-1.73 10.27h-7.26c.23-5.02 2.18-9.59 5.29-13.14 1.15 1.09 2.39 2.05 3.7 2.87zm11.46-10.14v11.66c-3.21-.15-6.28-.97-9.04-2.44 2.02-5.16 5.29-8.68 9.04-9.22zm0 13.68v6.73h-11.18c.09-3.34.6-6.5 1.46-9.28 2.99 1.54 6.28 2.41 9.72 2.55zm-11.18 8.73h11.18v6.73c-3.44.14-6.73 1.02-9.72 2.55-.86-2.78-1.37-5.94-1.46-9.28zm11.18 8.75v11.66c-3.75-.54-7.02-4.06-9.04-9.22 2.76-1.47 5.83-2.29 9.04-2.44zm-10.74-22.95c-1.06-.7-2.07-1.5-3.01-2.4 2.14-2.03 4.7-3.61 7.53-4.63-1.8 1.77-3.35 4.17-4.52 7.03zm-3.01 28.8c.94-.89 1.95-1.7 3.01-2.4 1.18 2.85 2.72 5.26 4.52 7.02-2.83-1.01-5.39-2.59-7.53-4.62zm15.75 5.85v-16.39c1.87-.37 3.35-1.76 3.91-3.55l8.94.92.2-1.99-8.94-.92c-.08-.88-.36-1.69-.83-2.39l9.62-9.62-1.41-1.41-9.62 9.62c-.56-.37-1.19-.64-1.87-.77v-16.4c11.39.53 20.5 9.93 20.5 21.45s-9.11 20.92-20.5 21.45z"/><path d="m40.51 23h3.37v2h-3.37z"/><path d="m32.03 7.62h3.37v2h-3.37z" transform="matrix(.534 -.846 .846 .534 8.424 32.526)"/><path d="m38.38 32.03h2v3.37h-2z" transform="matrix(.534 -.845 .845 .534 -10.165 48.988)"/><path d="m38.19 14.12h3.37v2h-3.37z" transform="matrix(.873 -.488 .488 .873 -2.308 21.39)"/><path d="m31.88 38.19h2v3.38h-2z" transform="matrix(.873 -.488 .488 .873 -15.283 21.121)"/></g></svg>