<svg width="139" height="220" viewBox="0 0 139 220" fill="none" xmlns="http://www.w3.org/2000/svg">
<path d="M122.015 218.95C120.706 219.064 119.397 218.836 118.089 218.95H71.3849C71.3493 218.929 71.2923 219.021 71.2058 218.95C70.0324 218.049 64.3119 214.189 63.8835 213.825C58.9996 209.591 57.9911 202.426 58.1916 195.962C58.6566 180.937 64.141 166.198 73.2452 154.27C73.2666 154.241 73.288 154.22 73.3093 154.192C73.8955 153.426 74.5031 152.668 75.1188 151.924C75.5126 151.452 75.9054 150.98 76.3054 150.502C76.3054 150.502 76.3197 150.494 76.3197 150.487C85.1583 140.061 97.401 128.29 110.517 140.747C116.695 146.611 118.956 155.75 118.118 164.231C117.289 172.713 113.721 180.679 109.679 188.18C105.646 195.682 101.077 202.94 97.9587 210.871C99.353 209.626 101.47 209.198 103.887 209.361C110.658 209.813 119.797 214.209 122.015 218.95Z" fill="#3B429F"/>
<path d="M127.285 108.365L134.872 214.293C134.872 214.293 138.52 215.823 138.677 218.929H124.723L105.732 109.977C104.72 104.56 109.184 99.6853 114.669 100.217L119.826 100.716C123.845 101.105 126.996 104.337 127.285 108.365Z" fill="#3B429F"/>
<path d="M118.87 109.081L126.456 215.008" stroke="#3B429F" stroke-width="1.01769" stroke-miterlimit="10" stroke-linecap="round"/>
<path d="M127.69 141.49C122.405 163.466 108.425 182.845 94.6877 201.653C92.7856 204.256 90.8622 206.888 88.7454 209.362C86.0496 212.516 83.0606 215.419 79.456 217.707C78.0038 218.629 76.5098 219.38 74.9863 219.966H56.4502C56.3209 219.923 56.1927 219.881 56.0645 219.831C54.2408 219.165 52.4527 218.329 50.7155 217.335C29.0856 204.93 37.1965 167.077 49.9543 150.79C56.6791 142.205 65.7376 135.807 73.6664 128.319C81.5952 120.832 88.7281 111.497 89.6827 100.634C90.1071 95.8085 89.2808 90.9154 89.9494 86.1171C92.8702 65.1324 113.216 82.1908 119.725 91.5688C129.878 106.199 131.681 124.9 127.69 141.49Z" fill="black"/>
<path d="M66.0818 138.329C65.2778 139.247 64.4749 140.166 63.6709 141.084" stroke="#3B429F" stroke-width="1.01769" stroke-miterlimit="10" stroke-linecap="round"/>
<path d="M62.6387 146.908C63.3276 145.99 64.0166 145.071 64.7055 144.153" stroke="#3B429F" stroke-width="1.01769" stroke-miterlimit="10" stroke-linecap="round"/>
<path d="M67.3721 140.74C68.061 140.051 68.75 139.362 69.4389 138.673" stroke="#3B429F" stroke-width="1.01769" stroke-miterlimit="10" stroke-linecap="round"/>
<path d="M115.333 100.575C115.608 101.557 115.884 102.539 116.16 103.521" stroke="#3B429F" stroke-width="1.01769" stroke-miterlimit="10" stroke-linecap="round"/>
<path d="M118.679 103.437C118.947 104.331 119.215 105.226 119.484 106.12" stroke="#3B429F" stroke-width="1.01769" stroke-miterlimit="10" stroke-linecap="round"/>
<path d="M119.412 98.3691C119.956 99.6189 120.499 100.869 121.042 102.118" stroke="#3B429F" stroke-width="1.01769" stroke-miterlimit="10" stroke-linecap="round"/>
<path d="M50.7105 216.781C37.9762 206.121 29.8316 190.356 28.6267 173.813C27.4655 157.603 33.5716 141.845 38.024 126.834C43.9052 107.35 46.4107 85.8514 39.7744 66.4217C37.8744 61.0595 34.9994 55.4979 29.8662 52.861C22.2662 49.0956 11.8227 54.3082 9.04335 61.9083C7.58297 65.9129 8.84083 71.4572 13.1273 72.884C15.2126 73.5842 17.3303 73.3969 18.575 71.848C19.4532 70.7723 19.8247 68.5701 18.8019 67.5595C13.7817 62.6095 20.7538 55.0623 26.0885 59.7294C28.0272 61.6681 29.277 64.424 29.5752 66.9652C31.0447 84.1875 9.0708 88.3427 1.8147 73.9394C-5.90954 57.5373 12.5411 41.1281 28.5849 45.0177C37.793 47.2617 43.0911 56.1054 45.675 64.4698C52.1373 85.4769 49.0771 107.736 42.6117 128.225C36.3458 147.795 28.59 167.891 36.8211 188.093C40.4379 197.421 46.6713 205.787 54.7344 211.668C58.1874 214.309 54.2663 219.569 50.7105 216.781Z" fill="black"/>
<path d="M106.874 219.968C105.565 220.082 104.257 219.854 102.948 219.968H56.2442C56.2086 219.946 56.1516 219.904 56.0651 219.832C54.8928 218.932 49.1713 214.19 48.7429 213.825C43.859 209.591 42.8505 202.426 43.0509 195.962C43.516 180.937 49.0003 166.198 58.1045 154.27C58.1259 154.241 58.1473 154.22 58.1687 154.192C58.7549 153.426 59.3624 152.668 59.9781 151.924C60.3709 151.452 60.7648 150.98 61.1647 150.502C61.1647 150.502 61.179 150.494 61.179 150.487C70.0176 140.061 82.2604 128.29 95.3753 140.747C101.554 146.611 103.814 155.75 102.977 164.231C102.148 172.713 98.579 180.679 94.5388 188.18C90.5057 195.682 85.9362 202.94 82.818 210.871C84.2123 209.626 86.3291 209.198 88.7461 209.361C95.5178 209.813 104.657 215.226 106.874 219.968Z" fill="black"/>
<path d="M95.3746 140.746C101.553 146.61 103.813 155.749 102.977 164.23C102.147 172.712 98.5783 180.678 94.5381 188.179C90.505 195.681 85.9356 202.939 82.8174 210.87C84.2116 209.625 86.3284 209.197 88.7454 209.361C95.5171 209.811 104.657 214.717 106.873 219.458" stroke="#3B429F" stroke-width="1.01769" stroke-miterlimit="10" stroke-linecap="round" stroke-linejoin="round"/>
<path d="M96.8828 216.823C96.8828 216.823 99.1645 217.154 100.215 219.46" stroke="#3B429F" stroke-width="1.01769" stroke-miterlimit="10" stroke-linecap="round" stroke-linejoin="round"/>
<path d="M100.215 215.897C100.215 215.897 102.631 216.501 103.705 219.459" stroke="#3B429F" stroke-width="1.01769" stroke-miterlimit="10" stroke-linecap="round" stroke-linejoin="round"/>
<path d="M50.7709 189.052C50.6865 189.947 50.603 190.842 50.5186 191.737" stroke="#3B429F" stroke-width="1.01769" stroke-miterlimit="10" stroke-linecap="round"/>
<path d="M52.866 191.203C52.8639 192.187 52.8619 193.171 52.8599 194.155" stroke="#3B429F" stroke-width="1.01769" stroke-miterlimit="10" stroke-linecap="round"/>
<path d="M54.7858 187.982C54.7766 188.698 54.7675 189.413 54.7583 190.13" stroke="#3B429F" stroke-width="1.01769" stroke-miterlimit="10" stroke-linecap="round"/>
<path d="M107.137 1.14376C109.857 13.0995 112.043 25.1764 113.684 37.3276C113.347 34.8251 100.167 32.6167 98.0588 32.3318C95.4912 31.9837 91.5894 32.7633 89.2396 31.9756C86.6455 31.1055 87.3528 32.0356 87.8463 29.2909C88.6788 24.6635 93.2899 18.3162 95.6164 14.1997C98.2837 9.47964 101.255 4.93057 104.51 0.593187C105.263 -0.412288 106.858 -0.0805213 107.137 1.14376Z" fill="black"/>
<path d="M97.6802 23.8163L106.342 4.60547L107.31 27.077L97.6802 23.8163Z" fill="#AA7DCE" stroke="#3B429F" stroke-width="1.01769" stroke-miterlimit="10" stroke-linecap="round"/>
<path d="M98.2251 20.9926C109.097 22.1772 118.821 28.4787 122.485 41.2242C123.815 45.8516 123.838 50.9299 126.214 55.1075C127.584 57.5184 129.675 59.4866 130.751 62.0471C132.778 66.8628 130.714 72.343 128.076 76.6916C121.121 88.1558 108.215 98.4772 94.1422 98.5057C79.8742 98.5352 65.591 88.9883 59.4034 76.3089C53.3665 63.9379 54.5165 48.3602 62.3049 37.01C70.0739 25.6872 84.9982 19.5526 98.2251 20.9926Z" fill="black"/>
<path d="M78.1759 65.6499C82.1937 67.6477 92.5395 70.4239 94.8151 64.6333C96.939 59.2009 88.7151 52.4607 84.6586 50.4162C84.0622 50.115 83.4404 49.8463 82.8104 49.6183C78.6817 48.1101 73.9321 48.1427 70.0364 49.9877C68.9322 50.5098 67.8891 51.1764 66.96 51.9926C68.5567 57.8483 72.7384 62.9429 78.1759 65.6499Z" fill="#F2FDFF"/>
<path d="M74.1629 61.8794C76.2349 64.2394 79.6859 66.0387 82.4622 64.5691C84.2696 63.6176 85.2282 61.4978 85.332 59.4522C85.4379 57.4138 84.8313 55.4049 84.2156 53.4519C83.8065 52.1554 83.3791 50.8497 82.8112 49.6183C78.6825 48.1101 73.9329 48.1427 70.0372 49.9877C69.8123 54.2824 71.3124 58.6523 74.1629 61.8794Z" fill="#FC5130"/>
<path d="M109.813 60.3944C112.559 62.6832 115.848 60.4229 117.869 55.8464C119.33 52.543 121.879 43.4031 120.071 39.02C118.764 35.8448 116.437 37.6685 114.627 40.1781C113.775 41.3576 113.037 42.6958 112.575 43.7319C111.19 46.8358 110.269 50.8475 109.93 55.0668C109.785 56.8254 109.746 58.6135 109.813 60.3944Z" fill="#F2FDFF"/>
<path d="M109.931 55.0665C110.571 57.1334 111.553 58.7139 112.663 58.3841C113.612 58.0982 114.373 56.4322 114.745 54.5515C115.118 52.6637 115.175 50.5754 115.211 48.5299C115.258 46.2126 115.289 43.8455 114.95 41.6432C114.88 41.1781 114.769 40.6774 114.628 40.1777C113.777 41.3572 113.039 42.6955 112.577 43.7315C111.192 46.8354 110.27 50.8472 109.931 55.0665Z" fill="#FC5130"/>
<path d="M52.2247 15.5354C63.0437 21.3037 73.6053 27.5574 83.8666 34.269C81.7539 32.887 71.458 41.405 69.8612 42.8125C67.9175 44.5263 65.9533 47.9854 63.8192 49.2463C61.4633 50.6385 62.6295 50.7118 60.8771 48.5421C57.9238 44.8845 56.1438 37.2437 54.5532 32.7893C52.7305 27.6825 51.2366 22.4588 50.0876 17.1597C49.823 15.9323 51.1164 14.9442 52.2247 15.5354Z" fill="black"/>
<path d="M63.1771 37.5247L54.3232 18.4023L71.9455 32.3782L63.1771 37.5247Z" fill="#AA7DCE" stroke="#3B429F" stroke-width="1.01769" stroke-miterlimit="10" stroke-linecap="round"/>
<path d="M101.263 63.4624L106.269 62.3358C107.04 62.1617 107.669 62.9576 107.323 63.6679L105.524 67.3591C105.26 67.9015 104.559 68.0593 104.088 67.6817L100.881 65.1161C100.265 64.6246 100.493 63.6354 101.263 63.4624Z" fill="#AA7DCE"/>
<path d="M120.696 126.106L122.871 164.938" stroke="#3B429F" stroke-width="1.01769" stroke-miterlimit="10" stroke-linecap="round"/>
<path d="M119.241 114.248L126.458 215.008C126.458 215.008 131.489 216.86 131.647 219.967H117.692L97.3182 110.693C96.3066 105.276 100.77 100.401 106.256 100.932C113.251 101.609 118.738 107.236 119.241 114.248Z" fill="black"/>
<path d="M117.596 219.459L101.016 130.506" stroke="#3B429F" stroke-width="1.01769" stroke-miterlimit="10" stroke-linecap="round"/>
<path d="M124.092 217.704C124.092 217.704 126.2 217.935 126.558 219.459" stroke="#3B429F" stroke-width="1.01769" stroke-miterlimit="10" stroke-linecap="round"/>
<path d="M127.391 217.153C128.364 217.381 129.583 218.151 129.773 219.459" stroke="#3B429F" stroke-width="1.01769" stroke-miterlimit="10" stroke-linecap="round"/>
</svg>
