<svg width="343" height="220" viewBox="0 0 343 220" fill="none" xmlns="http://www.w3.org/2000/svg">
<path fill-rule="evenodd" clip-rule="evenodd" d="M304.124 10.7231C303.824 11.0787 300.153 22.5061 299.385 25.5034C298.673 28.3513 298.505 30.4491 298.617 35.0198C298.748 40.49 299.198 43.0196 300.602 46.4099C301.276 48.0206 303.543 51.5797 305.267 53.697C306.691 55.4586 310.775 59.4286 311.898 60.1414C312.76 60.6852 312.778 60.7032 313.434 62.9325C315.027 68.2906 315.607 71.8676 315.72 77.0016L315.795 80.9358L315.345 79.1935C313.059 70.6319 310.025 65.4995 303.056 58.5306C298.972 54.4276 294.626 51.0747 288.725 47.4588C284.06 44.593 283.312 44.705 283.742 48.1147C284.155 51.2809 285.84 55.4765 288.631 60.3281C292.21 66.5469 297.68 73.2169 302.213 76.8507C305.042 79.1173 309.445 81.4781 312.89 82.5271C315.962 83.4818 315.682 83.2009 315.532 85.2061C315.12 90.5074 313.378 97.6257 311.017 103.602C310.08 105.944 308.619 109.129 308.768 108.473C308.805 108.267 308.937 107.161 309.049 106.02C309.387 102.536 308.862 99.9312 307.063 96.3541C304.665 91.5773 301.462 87.5116 297.341 84.0272C294.381 81.5364 292.919 80.749 292.638 81.4796C292.507 81.7979 293.687 88.1108 294.361 90.8645C295.353 94.8734 296.703 98.3384 299.138 103.135C300.731 106.281 301.967 108.267 304.159 111.172C305.095 112.427 305.863 113.588 305.863 113.739C305.863 114.32 301.611 120.484 298.67 124.21C296.048 127.526 290.222 133.202 286.438 136.181C285.257 137.099 284.958 137.605 285.595 137.605C286.343 137.605 292.957 131.797 296.235 128.238C299.401 124.811 303.261 119.714 306.07 115.218L307.362 113.138L309.104 112.914C314.144 112.278 320.944 109.111 327.031 104.559C330.141 102.235 335.181 97.0086 337.84 93.3C338.908 91.8387 341.737 86.9498 342.055 86.0877C342.279 85.4317 342.018 84.964 341.419 84.964C340.912 84.964 330.516 89.7603 326.957 91.652C320.532 95.0617 317.515 97.5345 313.131 103.042C311.183 105.478 311.202 105.458 311.689 104.26C313.375 99.9879 314.818 95.0243 315.586 90.7719C315.924 88.955 316.541 84.2155 316.541 83.5595C316.541 83.4475 317.871 82.2103 319.501 80.7863C324.859 76.1589 329.73 70.9143 332.464 66.8308C333.682 65.0138 336.342 59.974 337.39 57.5011C338.233 55.5527 339.826 50.7953 340.519 48.1536C341.175 45.7181 342.093 40.6409 341.943 40.2674C341.625 39.462 340.951 40.0238 334.974 46.0378C329.111 51.9578 326.975 54.3738 324.541 57.8956C320.475 63.7408 318.621 67.8423 317.366 73.6696C316.822 76.1992 316.541 76.6669 316.541 75.0368C316.541 72.5071 315.529 66.9622 314.292 62.7845L313.543 60.2549L314.237 59.1686C315.773 56.7526 317.815 51.5065 318.546 48.0595C319.014 45.8496 319.014 40.6977 318.526 37.8498C317.684 32.792 316.297 28.4649 314.105 24.081C312.194 20.2589 307.586 12.8403 306.031 11.0802C305.379 10.3301 304.611 10.1807 304.124 10.7231Z" fill="#967190"/>
<path fill-rule="evenodd" clip-rule="evenodd" d="M27.9032 17.5612C27.8091 17.6927 27.2473 18.8163 26.6855 20.0714C24.232 25.4475 22.3957 30.7861 21.3273 35.6945C20.5773 39.1221 19.4357 46.6348 19.4357 48.1514C19.4357 48.7132 19.3042 48.8626 18.2748 49.5559C15.258 51.5985 13.217 53.6021 10.5379 57.1433C6.37965 62.6509 4.13092 67.1289 2.08988 73.9842C0.946836 77.7868 0.40445 81.0098 0.141476 85.2248C-0.0647201 88.3342 -0.0452957 88.7839 0.198254 89.0275C0.722709 89.5714 1.32187 89.1395 3.13879 86.8923C4.11299 85.694 5.7237 83.7262 6.71733 82.5458C7.69153 81.3474 9.30225 79.3243 10.2585 78.0304C15.3357 71.2304 16.8897 67.9148 18.7633 59.9524C19.2699 57.8172 19.3072 57.8725 19.6255 61.2643C19.869 63.906 19.9064 64.1869 20.3935 66.8839C20.7491 68.7755 21.6292 72.4661 22.061 73.8153C22.173 74.1156 22.3613 74.7522 22.5107 75.2198C22.6601 75.6875 23.092 76.8873 23.4655 77.9168L24.1394 79.7532L22.5287 83.5005C19.7749 89.9076 17.9206 95.9395 17.1706 100.979C16.7402 103.827 16.552 111.058 16.8329 113.719C17.2453 117.653 18.1074 122.935 18.5945 124.584C18.7439 125.091 19.119 126.383 19.4372 127.45C20.0558 129.605 20.1111 129.736 20.4294 129.736C21.0853 129.717 21.1032 129.717 24.2514 120.558C27.4549 111.247 28.8042 104.634 28.8221 98.0777C28.8221 94.9115 28.5591 92.7569 27.7732 89.2725C27.4176 87.7739 27.174 86.5188 27.2114 86.4814C27.2682 86.4441 27.4355 86.6876 27.6238 87.0059C29.3286 90.0779 32.2886 94.0868 35.0603 97.0661L36.9893 99.146L36.8398 100.158C36.3527 103.623 37.1028 110.461 38.3579 114.095C40.4378 120.015 46.1515 127.302 52.445 132.022C55.7606 134.533 61.6431 138.28 64.5657 139.74C66.1391 140.545 67.2074 140.358 67.2074 139.272C67.2074 139.009 66.4962 133.951 66.1764 131.985C66.1391 131.722 66.0076 130.879 65.9135 130.111C65.8014 129.343 65.6893 128.538 65.6326 128.332C65.5952 128.125 65.4637 127.32 65.3517 126.552C65.014 124.435 64.621 122.693 64.0771 121.045C63.59 119.527 60.8168 113.589 60.3686 113.064C60.2192 112.915 59.9935 112.577 59.8621 112.314C58.3634 109.504 55.1599 106.057 52.4061 104.259C48.6214 101.806 42.4027 99.2192 38.7868 98.6021L37.4196 98.378L35.9583 96.7673C32.9042 93.4517 31.2561 91.2971 29.1015 87.8127C28.0706 86.1273 25.9922 82.1364 25.9922 81.8375C25.9922 81.7628 26.3478 82.1184 26.7796 82.625C28.2035 84.2924 31.4817 87.5886 32.9236 88.7884C38.9556 93.7909 49.4462 97.7804 60.5554 99.279C65.7073 99.9902 68.9481 100.141 69.622 99.7467C70.5588 99.1654 69.5473 97.1423 66.9056 94.3333C64.7136 92.0099 60.2744 88.6196 56.3403 86.2409C54.2798 85.0052 49.7465 82.6817 47.9102 81.9137C45.4 80.8828 41.4285 79.5903 39.3859 79.16C36.9698 78.6161 30.6555 78.4293 28.1273 78.8044C27.2099 78.9358 26.0848 79.0479 25.6171 79.0479C24.7923 79.0673 24.7923 79.0673 24.4367 78.1305C22.451 72.9786 20.9523 66.6657 20.3905 61.0267C20.147 58.6285 19.9034 53.7396 20.0528 53.8711C20.1096 53.9279 20.5026 54.8827 20.9329 56.0257C21.9639 58.7421 22.7498 59.9972 24.5861 61.8335C27.5461 64.8114 32.698 67.9223 37.2313 69.5136C40.5469 70.6566 43.3754 71.3499 44.9114 71.3679C46.2038 71.3873 46.3159 71.3484 46.3727 70.9928C46.4474 70.4863 41.409 63.8178 38.9915 61.2135C34.8705 56.8116 28.8565 52.2783 23.2743 49.3931C21.8324 48.643 20.5773 47.9138 20.4637 47.7823C20.1081 47.2579 21.4753 38.4154 22.6183 33.8268C23.7046 29.537 25.26 25.1905 27.4146 20.433C28.0705 18.9911 28.6129 17.7166 28.6129 17.5851C28.6144 17.2609 28.1468 17.2609 27.9032 17.5612Z" fill="#967190"/>
<path fill-rule="evenodd" clip-rule="evenodd" d="M272.409 188.989C272.371 189.121 272.352 190.282 272.371 191.537C272.428 193.503 272.483 193.898 272.764 194.066C272.989 194.216 273.177 194.216 273.42 194.066C273.683 193.898 273.739 193.505 273.795 191.556C273.833 190.038 273.776 189.178 273.627 189.009C273.364 188.671 272.54 188.671 272.409 188.989Z" fill="#967190"/>
<path fill-rule="evenodd" clip-rule="evenodd" d="M282.3 196.164C280.595 197.288 280.183 197.643 280.24 197.963C280.352 198.694 280.876 198.825 281.758 198.319C283.331 197.439 285.074 196.202 285.262 195.846C285.505 195.396 285.205 194.74 284.737 194.74C284.567 194.74 283.461 195.377 282.3 196.164Z" fill="#967190"/>
<path fill-rule="evenodd" clip-rule="evenodd" d="M261.357 195.826C261.076 196.013 260.926 196.519 261.056 196.744C261.3 197.137 264.822 199.048 265.289 199.048C265.776 199.048 266.057 198.58 265.851 198.055C265.739 197.737 262.235 195.677 261.805 195.677C261.675 195.677 261.469 195.751 261.357 195.826Z" fill="#967190"/>
<path fill-rule="evenodd" clip-rule="evenodd" d="M280.67 206.429C280.483 206.561 280.389 206.842 280.427 207.103C280.464 207.441 280.914 207.759 282.636 208.639C283.817 209.239 284.94 209.726 285.147 209.688C285.653 209.614 285.971 209.052 285.708 208.657C285.484 208.302 285.559 208.357 283.404 207.29C281.214 206.205 281.045 206.149 280.67 206.429Z" fill="#967190"/>
<path fill-rule="evenodd" clip-rule="evenodd" d="M263.529 207.667C261.674 208.735 261.187 209.222 261.468 209.746C261.787 210.308 262.33 210.177 264.297 209.035C266.151 207.949 266.563 207.499 266.151 207.012C265.777 206.541 265.196 206.692 263.529 207.667Z" fill="#967190"/>
<path fill-rule="evenodd" clip-rule="evenodd" d="M273.083 210.944C272.783 211.3 272.914 215.627 273.232 216.227C273.495 216.715 274.057 216.789 274.375 216.396C274.676 216.041 274.432 211.637 274.095 211.076C273.776 210.588 273.421 210.551 273.083 210.944Z" fill="#967190"/>
<path fill-rule="evenodd" clip-rule="evenodd" d="M236.478 0.10166C229.134 0.944373 217.821 4.05374 204.706 8.81268C196.669 11.7353 190.45 14.9014 183.163 19.7709C179.06 22.5247 173.834 25.0543 168.682 26.7771C164.373 28.2011 163.811 28.2758 157.873 28.1264C154.669 28.0517 151.692 28.0696 150.005 28.2011C142.568 28.7629 133.182 30.6545 119.656 34.3645C103.114 38.8978 91.7065 43.095 84.8124 47.2159C82.5457 48.5651 81.6088 49.3331 81.1591 50.2326C80.9529 50.645 80.672 51.038 80.5599 51.1127C80.1849 51.3563 80.279 52.3305 80.9903 55.7775C82.4142 62.6522 82.713 63.2514 88.1459 70.259C91.4988 74.5862 93.241 76.6661 95.5271 79.1016C97.4187 81.1067 97.6443 81.4803 98.0179 83.2225C98.3735 84.9647 98.7679 85.9957 99.4597 87.1193C101.689 90.6231 104.724 93.3948 106.391 93.3948C106.99 93.3948 106.916 93.0571 107.477 98.0775C107.853 101.299 109.894 117.073 110.962 125.053C111.543 129.306 111.767 135.3 111.43 137.624C111.298 138.467 111.017 139.647 110.793 140.209C110.587 140.79 110.4 141.389 110.381 141.558C110.361 141.839 109.389 143.713 106.727 148.658C104.985 151.862 99.2715 163.513 98.2031 166.006C97.2857 168.123 95.6929 172.994 95.1117 175.447C94.6619 177.396 94.6246 179.849 95.037 181.273C95.412 182.548 96.7045 185.113 98.0716 187.324C100.619 191.445 103.41 194.517 106.408 196.485C108.525 197.872 109.199 198.208 111.241 198.771C113.359 199.37 114.07 199.82 119.278 203.923C126.06 209.281 131.492 212.577 139.492 216.193C146.592 219.397 149.515 220.145 154.309 219.978C159.723 219.772 162.196 218.686 172.48 211.978C175.701 209.861 183.644 205.104 185.668 204.073L186.398 203.698L188.946 204.578C190.35 205.065 192.955 206.096 194.754 206.864C198.462 208.457 199.756 208.793 202.284 208.793C205.955 208.793 209.066 207.931 213.973 205.515C217.289 203.884 219.893 202.254 222.647 200.064C224.801 198.359 229.991 193.282 232.126 190.791C235.929 186.352 240.031 179.945 242.766 174.156C246.288 166.7 248.385 160.649 249.847 153.55C250.821 148.867 252.32 140.174 252.357 139.069C252.376 137.719 252.225 137.551 249.379 135.865C247.075 134.479 241.811 130.658 238.832 128.166C235.928 125.75 229.69 119.361 229.203 118.312C228.455 116.626 227.292 89.2933 227.948 88.6194C228.023 88.5627 229.466 88.2265 231.17 87.8514C236.377 86.7652 238.794 85.791 242.634 83.2613C247.449 80.0952 250.483 75.8428 251.927 70.2411C252.751 67.0197 252.414 62.972 250.934 58.7569C250.634 57.8768 249.455 55.2531 248.33 52.9311C245.258 46.5809 244.64 44.4442 245.258 42.3464C245.726 40.7357 246.25 39.7988 248.648 36.2203C251.139 32.5297 252.32 30.2062 253.5 26.6666C254.718 23.0133 255.093 21.0843 255.223 17.7867C255.41 13.1592 254.661 8.10146 253.2 3.96111C252.225 1.15057 251.701 0.720247 248.816 0.289925C247.063 0.0254565 238.333 -0.104536 236.478 0.10166ZM193.467 15.4618C193.467 15.5559 193.167 15.78 192.793 15.9294C191.819 16.3418 191.762 16.2671 192.624 15.7606C193.542 15.2182 193.467 15.2376 193.467 15.4618Z" fill="#967190"/>
<mask id="mask0_31_10123" style="mask-type:luminance" maskUnits="userSpaceOnUse" x="80" y="0" width="176" height="220">
<path d="M236.478 0.10166C229.134 0.944373 217.821 4.05374 204.706 8.81268C196.669 11.7353 190.45 14.9014 183.163 19.7709C179.06 22.5247 173.834 25.0543 168.682 26.7771C164.373 28.2011 163.811 28.2758 157.873 28.1264C154.669 28.0517 151.692 28.0696 150.005 28.2011C142.568 28.7629 133.182 30.6545 119.656 34.3645C103.114 38.8978 91.7065 43.095 84.8124 47.2159C82.5457 48.5651 81.6088 49.3331 81.1591 50.2326C80.9529 50.645 80.672 51.038 80.5599 51.1127C80.1849 51.3563 80.279 52.3305 80.9903 55.7775C82.4142 62.6522 82.713 63.2514 88.1459 70.259C91.4988 74.5862 93.241 76.6661 95.5271 79.1016C97.4187 81.1067 97.6443 81.4803 98.0179 83.2225C98.3735 84.9647 98.7679 85.9957 99.4597 87.1193C101.689 90.6231 104.724 93.3948 106.391 93.3948C106.99 93.3948 106.916 93.0571 107.477 98.0775C107.853 101.299 109.894 117.073 110.962 125.053C111.543 129.306 111.767 135.3 111.43 137.624C111.298 138.467 111.017 139.647 110.793 140.209C110.587 140.79 110.4 141.389 110.381 141.558C110.361 141.839 109.389 143.713 106.727 148.658C104.985 151.862 99.2715 163.513 98.2031 166.006C97.2857 168.123 95.6929 172.994 95.1117 175.447C94.6619 177.396 94.6246 179.849 95.037 181.273C95.412 182.548 96.7045 185.113 98.0716 187.324C100.619 191.445 103.41 194.517 106.408 196.485C108.525 197.872 109.199 198.208 111.241 198.771C113.359 199.37 114.07 199.82 119.278 203.923C126.06 209.281 131.492 212.577 139.492 216.193C146.592 219.397 149.515 220.145 154.309 219.978C159.723 219.772 162.196 218.686 172.48 211.978C175.701 209.861 183.644 205.104 185.668 204.073L186.398 203.698L188.946 204.578C190.35 205.065 192.955 206.096 194.754 206.864C198.462 208.457 199.756 208.793 202.284 208.793C205.955 208.793 209.066 207.931 213.973 205.515C217.289 203.884 219.893 202.254 222.647 200.064C224.801 198.359 229.991 193.282 232.126 190.791C235.929 186.352 240.031 179.945 242.766 174.156C246.288 166.7 248.385 160.649 249.847 153.55C250.821 148.867 252.32 140.174 252.357 139.069C252.376 137.719 252.225 137.551 249.379 135.865C247.075 134.479 241.811 130.658 238.832 128.166C235.928 125.75 229.69 119.361 229.203 118.312C228.455 116.626 227.292 89.2933 227.948 88.6194C228.023 88.5627 229.466 88.2265 231.17 87.8514C236.377 86.7652 238.794 85.791 242.634 83.2613C247.449 80.0952 250.483 75.8428 251.927 70.2411C252.751 67.0197 252.414 62.972 250.934 58.7569C250.634 57.8768 249.455 55.2531 248.33 52.9311C245.258 46.5809 244.64 44.4442 245.258 42.3464C245.726 40.7357 246.25 39.7988 248.648 36.2203C251.139 32.5297 252.32 30.2062 253.5 26.6666C254.718 23.0133 255.093 21.0843 255.223 17.7867C255.41 13.1592 254.661 8.10146 253.2 3.96111C252.225 1.15057 251.701 0.720247 248.816 0.289925C247.063 0.0254565 238.333 -0.104536 236.478 0.10166ZM193.467 15.4618C193.467 15.5559 193.167 15.78 192.793 15.9294C191.819 16.3418 191.762 16.2671 192.624 15.7606C193.542 15.2182 193.467 15.2376 193.467 15.4618Z" fill="white"/>
</mask>
<g mask="url(#mask0_31_10123)">
<path fill-rule="evenodd" clip-rule="evenodd" d="M247.605 -11.4949C246.012 -10.8584 245.17 -9.5286 244.964 -7.27987C244.832 -5.72443 244.402 -4.58289 243.728 -3.9643C243.39 -3.66397 243.298 -3.66397 242.547 -3.92695C240.057 -4.80702 234.229 -3.70282 224.939 -0.5546C215.179 2.74304 209.465 5.2906 200.21 10.4425C193.335 14.2646 186.834 17.4308 182.189 19.1909C175.727 21.6443 170.781 22.6947 161.526 23.6121C153.508 24.4175 150.436 24.9046 144.666 26.3465C140.844 27.3013 139.551 27.6763 129.211 30.8424C111.789 36.2006 110.029 36.6682 99.6134 38.7855C88.7672 40.9954 80.9931 43.132 78.6128 44.556C75.3914 46.4849 75.1852 50.6447 78.2199 52.5737C79.3061 53.267 80.355 53.5852 86.2197 55.0839C95.1369 57.3506 97.0106 57.5941 100.55 56.8455C102.387 56.4526 102.479 56.4526 104.353 56.7514C105.402 56.9202 107.219 57.2579 108.381 57.5194C109.542 57.763 111.491 58.0633 112.69 58.1753C113.889 58.2874 115.857 58.5504 117.037 58.7372C119.585 59.1675 120.372 59.1869 126.404 58.9613C130.937 58.7745 131.049 58.7745 136.782 57.6315C139.967 56.995 143.639 56.2449 144.932 55.946C146.224 55.6457 148.267 55.2154 149.447 54.9913C156.078 53.7735 162.711 51.1139 178.858 43.1888C183.242 41.0536 187.87 38.8243 189.162 38.2625C190.455 37.7007 192.44 36.8012 193.564 36.2573C195.943 35.1337 206.902 30.7304 209.356 29.9071C210.273 29.6068 212.577 28.915 214.47 28.389C222.076 26.2538 223.669 25.6726 228.746 23.1056C233.036 20.951 234.084 20.2204 239.087 16.0427C243.864 12.0338 246.6 9.35475 249.185 6.13332C250.196 4.87821 251.058 3.84724 251.076 3.84724C251.096 3.84724 250.701 5.13969 250.196 6.69513C248.772 11.1343 245.307 22.75 241.992 34.2895C240.344 40.06 238.639 45.8664 238.244 47.2156C237.139 50.8494 233.149 65.068 232.081 69.1904C231.556 71.1567 230.806 73.649 230.395 74.7173C229.983 75.7662 229.309 77.7714 228.897 79.1565C227.473 84.0275 225.731 88.7297 224.082 92.2141C223.615 93.2256 222.434 95.7926 221.478 97.9278C219.604 102.106 216.346 108.006 214.209 111.172C210.051 117.279 200.646 125.222 193.078 129.007C190.006 130.543 184.273 132.322 180.172 133.035C177.718 133.447 170.543 133.597 166.664 133.316C161.532 132.923 159.733 132.528 155.443 130.843C151.921 129.476 149.262 128.651 146.882 128.221C144.652 127.828 144.578 127.79 141.317 125.654C138.976 124.118 138.544 123.725 131.913 117.111C124.514 109.693 123.614 108.644 119.661 102.856C116.926 98.8647 114.772 96.0183 114.004 95.3429C112.935 94.4628 111.961 94.0878 110.763 94.0878C107.428 94.0878 105.611 97.2719 106.923 100.794C107.954 103.528 113.293 113.364 116.777 118.909C120.299 124.548 124.29 130.093 127.099 133.222C130.32 136.781 135.735 141.689 140.231 145.061C145.925 149.351 147.987 150.644 154.506 153.997C157.129 155.346 160.183 156.975 161.269 157.613C164.286 159.355 168.912 161.659 171.086 162.501C174.158 163.719 175.937 164.075 178.766 164.075C181.482 164.075 182.794 163.888 188.563 162.596C195.795 161.003 199.56 159.673 205.647 156.62C212.522 153.155 215.857 150.813 222.526 144.781C230.319 137.737 234.403 131.837 237.325 123.387C238.899 118.816 239.629 115.088 240.66 106.321C240.979 103.698 241.372 100.738 241.54 99.7641C241.709 98.7899 241.878 97.1045 241.878 96.0168C241.898 94.294 241.841 93.9369 241.448 93.1509L240.998 92.2335L243.434 89.7801C247.124 86.0521 249.297 83.2416 250.815 80.2637C251.17 79.5331 251.807 78.7845 252.875 77.8282C256.022 74.9803 258.457 71.1776 258.626 68.8363C258.738 67.2061 258.383 66.1393 257.371 65.1277C256.903 64.6406 256.228 64.1162 255.892 63.9473C255.405 63.6844 255.311 63.5349 255.385 63.1973C255.535 62.486 256.004 57.0906 256.697 48.2107C257.409 39.0499 257.689 36.2215 258.402 31.5761C259.357 25.2811 260.8 19.5674 262.879 13.6864C263.46 12.0383 264.283 9.71485 264.715 8.53445C265.615 5.94953 265.839 3.96378 265.334 2.67132C264.941 1.60299 263.798 0.516724 262.767 0.21789L261.942 -0.0256632L261.83 -1.31812C261.718 -2.72264 261.417 -3.45329 260.594 -4.27807C259.47 -5.42112 257.54 -5.83351 256.098 -5.23285C255.199 -4.85781 255.106 -4.87724 255.106 -5.4764C255.106 -6.58209 254.525 -7.68629 253.14 -9.2985C251.51 -11.1722 250.592 -11.6966 249.074 -11.6772C248.524 -11.6832 247.868 -11.5891 247.605 -11.4949ZM232.807 98.2251C232.807 98.8617 232.133 101.317 231.776 101.99L231.532 102.478L231.326 101.953C231.026 101.166 231.063 100.641 231.589 99.2935C232.151 97.7754 232.208 97.7007 232.544 97.7007C232.713 97.7007 232.807 97.889 232.807 98.2251Z" fill="#7A5375"/>
<path fill-rule="evenodd" clip-rule="evenodd" d="M171.006 61.8458C169.375 62.1461 168.364 62.7453 167.934 63.6627C166.959 65.6858 168.309 67.7284 170.575 67.7284C171.567 67.7284 171.567 67.7284 173.011 69.2076C175.183 71.4175 176.42 71.9046 180.653 72.2617C184.325 72.562 185.318 72.3558 189.252 70.4448L192.25 68.9835L194.029 68.9088C196.296 68.8146 196.483 68.7773 197.083 68.2155C197.72 67.6342 197.757 66.8109 197.177 66.2865C196.934 66.0803 195.979 65.5558 195.042 65.1255C193.113 64.2634 192.438 64.1887 190.621 64.6758C189.684 64.9387 188.673 65.0135 185.581 65.0135H181.741L180.618 64.3949C180.018 64.0572 178.538 63.3086 177.377 62.7095C175.371 61.7173 175.128 61.6411 173.818 61.6038C173.029 61.5843 171.774 61.6964 171.006 61.8458Z" fill="#7A5375"/>
<path fill-rule="evenodd" clip-rule="evenodd" d="M161.901 80.1857C160.515 80.9358 159.822 82.2462 159.972 83.8016C160.047 84.5128 160.31 85.0761 161.265 86.4986C162.445 88.2976 162.95 89.0656 165.03 92.3812C166.623 94.9108 169.302 97.1954 172.899 99.087C175.071 100.248 176.683 100.698 178.575 100.698C180.523 100.698 181.947 100.267 184.157 99.0302C185.075 98.5058 187.117 97.4569 188.69 96.6888C190.264 95.9014 192.175 94.8525 192.923 94.3475C194.442 93.3359 197.963 90.1892 198.918 88.9894C200.998 86.385 200.884 83.4624 198.655 82.0773C197.905 81.6097 197.624 81.5529 196.426 81.5708C195.546 81.5708 194.664 81.4587 193.935 81.2152C192.099 80.634 186.817 80.0348 183.912 80.1095C181.102 80.1663 177.655 80.1663 170.799 80.1095C168.27 80.0901 165.966 80.0722 165.647 80.0901C165.347 80.0901 164.504 80.0527 163.774 79.996C162.764 79.9048 162.332 79.9601 161.901 80.1857Z" fill="#7A5375"/>
<path fill-rule="evenodd" clip-rule="evenodd" d="M74.6982 165.796C72.3374 166.865 71.2512 169.45 72.2448 171.604C72.9381 173.103 74.099 173.814 76.4225 174.134C78.8759 174.49 84.6658 176.644 88.5611 178.649C91.1087 179.961 90.9772 179.792 90.266 180.616C88.9362 182.134 88.73 183.969 89.6848 185.899C90.4154 187.323 91.5585 188.409 97.178 192.962C104.746 199.051 109.354 202.871 113.701 206.581C122.936 214.505 124.191 215.499 126.964 216.997C130.449 218.889 131.684 219.095 132.415 217.915C132.845 217.184 132.771 216.716 131.909 214.805C131.384 213.682 131.327 213.456 131.608 213.531C131.777 213.588 133.407 214.299 135.205 215.124C149.891 221.774 157.478 223.235 167.407 221.324C172.278 220.388 175.894 218.627 180.445 214.992C183.517 212.557 186.177 211.62 190.561 211.47C192.753 211.396 193.745 211.47 196.555 211.863C199.74 212.331 200.995 212.575 205.266 213.511C207.777 214.055 211.654 214.055 213.921 213.511C215.682 213.081 219.729 211.394 221.32 210.439C222.632 209.634 223.999 208.267 224.673 207.049C225.14 206.206 225.217 205.869 225.217 204.558C225.217 203.209 225.16 202.948 224.655 202.142C224.299 201.561 223.737 200.999 223.176 200.644C222.37 200.156 222.07 200.082 220.927 200.082C219.204 200.082 218.397 200.475 216.225 202.423C214.033 204.372 213.64 204.503 209.855 204.615C205.996 204.727 205.172 204.558 200.451 202.592C191.496 198.883 187.694 197.89 182.41 197.89C176.903 197.909 173.831 198.976 166.375 203.472C164.52 204.578 162.441 205.758 161.71 206.094C155.996 208.736 147.548 209.879 143.127 208.624C139.586 207.612 136.101 205.515 128.553 199.876C125.255 197.422 124.094 196.428 117.331 190.247C107.102 180.937 105.923 179.925 101.858 176.909C95.3193 172.057 88.6508 168.647 81.1575 166.361C78.4635 165.535 75.8218 165.291 74.6982 165.796ZM172.486 210.12C171.979 210.55 170.032 211.581 170.331 211.263C170.555 211.019 172.71 209.727 172.841 209.727C172.898 209.745 172.747 209.913 172.486 210.12Z" fill="#7A5375"/>
</g>
<path fill-rule="evenodd" clip-rule="evenodd" d="M248.749 4.67266C247.681 6.65841 246.07 8.90565 244.253 10.9482C242.811 12.5783 239.083 15.8939 237.584 16.886C236.592 17.542 236.198 18.2726 236.816 18.2726C237.565 18.2726 242.943 13.6825 245.078 11.2097C247.588 8.36177 250.23 4.2782 250.23 3.304C250.23 2.46128 249.648 2.98574 248.749 4.67266Z" fill="#0F0B0D"/>
<path fill-rule="evenodd" clip-rule="evenodd" d="M248.299 11.4533C248.242 11.51 248.523 11.9971 248.935 12.5216C250.247 14.2638 250.677 16.6619 249.947 18.0859C249.76 18.4415 248.841 19.5651 247.886 20.5588C245.714 22.8448 244.27 25.5418 243.765 28.2014C243.616 29.0442 243.934 29.9437 244.365 29.8495C244.628 29.8122 244.683 29.606 244.628 28.838C244.59 28.1073 244.74 27.4708 245.264 26.1216C246.107 23.9117 246.875 22.7492 248.823 20.7261C249.666 19.846 250.491 18.8524 250.66 18.5536C251.559 16.7919 251.072 13.9829 249.516 11.9404C249.104 11.398 248.58 11.1724 248.299 11.4533Z" fill="#0F0B0D"/>
<path fill-rule="evenodd" clip-rule="evenodd" d="M228.424 21.3824C223.796 24.0047 222.653 24.4171 215.291 26.122C213.475 26.5344 210.159 28.0704 206.956 29.9993C203.771 31.9104 202.347 32.3975 198.657 32.8846C196.858 33.1087 195.379 33.6347 189.158 36.2196C188.485 36.5005 186.385 37.6809 184.476 38.8613C180.429 41.3521 178.762 42.1963 176.701 42.7387C175.671 43.0016 175.183 43.2258 175.146 43.432C175.071 43.8443 175.596 43.8443 177.075 43.4693C178.967 42.9628 180.86 42.0454 184.268 39.9281C188.239 37.4747 188.689 37.2491 191.948 35.994L194.533 35.0018L194.439 37.8303C194.345 41.5956 194.682 43.2437 196.368 47.2526C198.485 52.1983 199.29 54.7264 199.402 56.751C199.609 59.9919 198.56 62.5021 196.499 63.814C195.468 64.4699 194.7 64.5073 193.278 63.9634C191.929 63.4389 190.505 63.5704 188.501 64.3758C185.804 65.4441 183.761 65.3305 181.027 63.926C178.929 62.8398 177.431 61.6967 176.981 60.8166C176.551 59.9366 176.288 59.7304 175.989 60.0292C175.614 60.4043 176.57 61.9029 177.806 62.895C179.436 64.1875 182.264 65.5741 183.857 65.8356C185.468 66.1165 186.705 65.9297 189.27 65.0108C191.35 64.2428 191.612 64.2234 192.998 64.7478C195.078 65.5158 196.689 65.1229 198.206 63.4359C199.742 61.7311 200.303 59.8574 200.154 56.8795C200.023 54.2572 199.648 52.9648 197.644 48.2626C195.733 43.7667 195.34 42.3053 195.208 39.5322C195.096 36.9472 195.358 34.7732 195.827 34.437C196.183 34.1741 197.887 33.8005 200.623 33.3687C203.133 32.9563 204.088 32.6007 207.292 30.7644C212.65 27.6923 213.848 27.1858 217.633 26.4178C222.316 25.481 224.639 24.5635 229.435 21.7904C231.946 20.3485 232.601 19.7672 231.871 19.6358C231.721 19.6029 230.166 20.3903 228.424 21.3824Z" fill="#0F0B0D"/>
<path fill-rule="evenodd" clip-rule="evenodd" d="M248.187 25.8411C247.68 26.4403 247.307 31.5354 247.737 31.9672C248.187 32.417 248.356 31.9104 248.374 30.1129C248.374 28.4649 248.486 27.528 248.841 26.0847C248.936 25.7096 248.898 25.5781 248.673 25.5781C248.525 25.5796 248.299 25.6917 248.187 25.8411Z" fill="#0F0B0D"/>
<path fill-rule="evenodd" clip-rule="evenodd" d="M240.057 26.6275C239.982 26.7022 239.926 27.3581 239.926 28.0888C239.926 30.8052 238.596 40.8834 237.659 45.3241C236.985 48.5455 233.67 61.1533 231.645 68.1969C230.82 71.0821 229.565 75.5407 228.854 78.0883C228.143 80.6553 227.393 83.2402 227.186 83.8393C226.737 85.1692 226.719 85.5248 227.112 85.5248C227.487 85.5248 227.768 84.7941 228.685 81.6474C234.08 62.7267 237.583 49.8006 238.502 45.342C239.026 42.8124 239.944 36.6115 240.393 32.51C240.825 28.5938 240.674 26.0089 240.057 26.6275Z" fill="#0F0B0D"/>
<path fill-rule="evenodd" clip-rule="evenodd" d="M241.012 43.506C240.88 43.8242 240.788 44.8358 240.788 45.9968C240.807 48.5817 241.181 49.9115 243.166 54.3522C244.029 56.3006 244.928 58.4357 245.133 59.1111C245.958 61.696 246.144 64.1883 245.62 66.1367C245.039 68.4228 243.972 69.6406 240.056 72.469C237.339 74.4354 236.628 75.0913 236.834 75.3916C237.021 75.7099 237.341 75.6352 237.846 75.1675C238.127 74.9239 239.419 73.9318 240.768 72.9576C245.565 69.4926 246.651 67.7683 246.669 63.7416C246.669 60.801 246.07 58.7211 243.671 53.5125C242.023 49.8966 241.554 48.2111 241.574 45.9998C241.593 45.0256 241.611 43.9766 241.648 43.6763C241.725 42.9442 241.293 42.8321 241.012 43.506Z" fill="#0F0B0D"/>
<path fill-rule="evenodd" clip-rule="evenodd" d="M165.18 47.2904C162.145 48.2826 156.956 50.3998 151.13 53.0221C142.157 57.0683 139.684 57.8737 135.393 58.0619C134.007 58.1187 131.478 58.3802 129.774 58.6432C127.9 58.9061 125.877 59.0929 124.622 59.0929C123.498 59.0929 121.699 59.2244 120.65 59.3738C118.234 59.7489 116.473 59.7489 115.61 59.3932C115.255 59.2438 114.298 58.682 113.513 58.1187C112.725 57.5748 111.827 57.013 111.507 56.883C110.515 56.4527 108.473 56.4153 106.261 56.7889C104.706 57.0519 103.396 57.1266 100.866 57.1072C97.8118 57.0698 97.5309 57.0877 97.5877 57.3881C97.7192 58.0619 102.252 58.1755 106.205 57.5943C109.933 57.0698 110.907 57.2566 113.36 58.9988C114.016 59.4665 114.878 59.9909 115.271 60.1598C116.189 60.5348 118.343 60.5348 121.042 60.1598C122.165 59.9909 123.982 59.8594 125.07 59.8594C126.156 59.8594 128.554 59.6532 130.428 59.3917C132.282 59.1482 134.981 58.8673 136.423 58.7732C140.32 58.5102 142.961 57.6301 151.784 53.6213C156.73 51.3725 161.713 49.3494 164.767 48.3199C166.341 47.7955 166.865 47.5325 166.828 47.3278C166.753 46.9154 166.36 46.9154 165.18 47.2904Z" fill="#0F0B0D"/>
<path fill-rule="evenodd" clip-rule="evenodd" d="M163.793 50.905C163.249 51.7672 162.893 54.9513 163.137 56.5441C163.455 58.4925 164.973 61.0968 166.34 62.0336C166.902 62.4266 167.128 62.4834 167.277 62.334C167.446 62.1651 167.258 61.8469 166.415 61.0415C165.722 60.3482 165.103 59.4681 164.653 58.5686C164.035 57.3135 163.96 56.9759 163.905 55.4772C163.848 54.3342 163.942 53.3794 164.148 52.5546C164.317 51.8807 164.504 51.1501 164.561 50.9065C164.635 50.6062 164.58 50.4941 164.354 50.4941C164.205 50.4941 163.944 50.6809 163.793 50.905Z" fill="#0F0B0D"/>
<path fill-rule="evenodd" clip-rule="evenodd" d="M82.5101 52.4989C82.2471 52.7424 82.398 53.098 82.8104 53.2101C83.0345 53.2848 84.4406 53.9213 85.9571 54.634C88.7677 55.9459 90.7534 56.563 93.0754 56.7886C94.2737 56.9007 94.3678 56.8828 94.3678 56.5451C94.3678 56.2074 94.1616 56.1327 92.6451 55.9265C90.2663 55.6082 88.9171 55.1585 85.751 53.6598C82.9972 52.3674 82.7342 52.2553 82.5101 52.4989Z" fill="#0F0B0D"/>
<path fill-rule="evenodd" clip-rule="evenodd" d="M86.2005 57.5186C85.8822 58.3433 86.7817 60.6474 87.9233 61.9204C88.8601 62.9514 89.6849 63.4938 92.5881 64.9924C96.1846 66.8661 97.6279 68.0644 98.4139 69.956C98.8636 71.0244 98.7142 72.3168 97.6085 77.0369C97.5338 77.3746 97.5891 77.4673 97.8894 77.4673C98.3392 77.4673 98.508 77.0369 99.0504 74.3952C99.5943 71.6983 99.5569 70.4805 98.8442 69.0745C97.9641 67.3129 96.5955 66.1892 93.0184 64.335C91.2568 63.4175 89.6087 62.4239 89.0842 61.9368C88.0727 61.0373 87.1179 59.3325 86.9117 58.1147C86.7623 57.3124 86.3873 56.9941 86.2005 57.5186Z" fill="#0F0B0D"/>
<path fill-rule="evenodd" clip-rule="evenodd" d="M97.3077 60.5355C96.858 61.0032 97.9069 63.6822 99.0499 64.9747C100.118 66.2104 100.623 65.7248 99.5938 64.4308C98.8437 63.494 98.5075 62.8201 98.1146 61.5456C97.7948 60.5534 97.5707 60.2725 97.3077 60.5355Z" fill="#0F0B0D"/>
<path fill-rule="evenodd" clip-rule="evenodd" d="M101.806 62.7833C101.6 62.9895 101.657 65.0873 101.881 66.3424C102.181 68.0652 105.609 82.1717 105.89 82.8276C106.414 84.1022 107.088 83.8198 106.64 82.5094C106.172 81.2349 102.855 67.4481 102.631 65.8553C102.519 65.0873 102.407 64.0758 102.368 63.626C102.33 62.8401 102.087 62.5024 101.806 62.7833Z" fill="#0F0B0D"/>
<path fill-rule="evenodd" clip-rule="evenodd" d="M241.536 63.851C241.273 64.507 239.607 66.3044 237.789 67.8599C236.778 68.7594 236.571 69.227 237.208 69.227C237.601 69.227 241.123 65.9668 241.779 64.9941C242.397 64.0393 242.547 63.2324 242.079 63.2324C241.929 63.2324 241.686 63.5133 241.536 63.851Z" fill="#0F0B0D"/>
<path fill-rule="evenodd" clip-rule="evenodd" d="M91.0701 66.8669C90.9954 67.0731 91.1074 67.354 91.3704 67.6349C91.8201 68.1026 94.4992 69.283 94.7607 69.1142C95.0416 68.9453 94.9475 68.4776 94.6113 68.3462C93.9 68.1026 92.0069 67.1658 91.6139 66.8669C91.221 66.586 91.1836 66.586 91.0701 66.8669Z" fill="#0F0B0D"/>
<path fill-rule="evenodd" clip-rule="evenodd" d="M95.9977 71.2324C95.8857 71.4012 95.1177 74.6047 95.1177 74.8662C95.1177 75.1098 95.6242 75.0724 95.7915 74.8289C95.9783 74.5106 96.6163 72.0004 96.6163 71.5133C96.6163 71.1188 96.1845 70.932 95.9977 71.2324Z" fill="#0F0B0D"/>
<path fill-rule="evenodd" clip-rule="evenodd" d="M234.38 72.9174C233.781 73.9484 233.669 75.072 234.174 75.184C234.398 75.2214 234.492 75.1273 234.492 74.8284C234.492 74.6043 234.755 73.9484 235.054 73.4045C235.372 72.8427 235.579 72.3182 235.522 72.2241C235.28 71.8311 234.885 72.0747 234.38 72.9174Z" fill="#0F0B0D"/>
<path fill-rule="evenodd" clip-rule="evenodd" d="M167.428 73.3104C166.099 73.7602 165.18 74.2473 163.738 75.2588C161.976 76.4945 158.474 79.7174 158.362 80.2045C158.268 80.5422 158.456 80.9158 159.187 81.8152C159.711 82.4712 160.966 84.2134 161.96 85.712C164.04 88.8035 165.35 90.3022 166.905 91.369C168.817 92.6615 169.003 92.6988 173.33 92.8482C175.747 92.9424 178.164 93.1485 179.606 93.3727C183.54 94.0286 186.237 93.8403 188.28 92.8109C191.053 91.3869 195.305 87.8084 197.908 84.699C199.969 82.2261 199.951 82.4503 198.32 80.6154C195.398 77.2999 193.618 75.6891 192.063 74.9211L190.584 74.1905H188.242C186.257 74.1905 185.526 74.2846 183.634 74.7523C181.835 75.202 180.975 75.3141 179.325 75.3141H177.265L174.548 74.2084C172.038 73.1774 171.7 73.0848 170.146 73.028C168.89 72.9922 168.196 73.0669 167.428 73.3104ZM174.172 74.9406C175.708 75.5591 177.338 76.0836 177.956 76.1389C179.398 76.3257 181.347 76.1015 184.008 75.4829C186.856 74.827 189.496 74.7523 190.977 75.2962C192.475 75.858 194.18 77.2625 196.447 79.7921C198.863 82.5085 198.938 82.3397 195.304 82.3397C192.644 82.3397 191.67 82.2276 185.994 81.2908C181.423 80.5228 180.973 80.5228 171.644 81.122C165.949 81.497 164.319 81.4029 161.583 80.5407C159.597 79.9221 159.578 79.9042 160.309 79.6039C160.702 79.435 160.871 79.2483 160.815 79.0794C160.628 78.6117 164.056 75.8191 166.117 74.7523C168.739 73.3866 170.369 73.424 174.172 74.9406ZM161.546 81.4417L163.4 82.0603L167.709 82.0409C170.088 82.0409 173.366 81.9094 175.016 81.76C179.418 81.367 182.171 81.4417 185.506 82.0409C190.059 82.8656 192.232 83.0898 195.286 83.0898H198.171L196.953 84.5317C195.492 86.3112 192.194 89.3085 190.285 90.6204C186.744 93.0365 184.721 93.4309 179.981 92.6256C178.426 92.3626 176.328 92.1953 173.705 92.1011L169.753 91.9891L168.536 91.3899C166.644 90.4531 165.071 88.8797 163.103 85.9392C162.148 84.5346 161.023 82.9045 160.593 82.3427C159.73 81.1997 159.506 80.844 159.618 80.844C159.672 80.8411 160.534 81.1234 161.546 81.4417Z" fill="#0F0B0D"/>
<path fill-rule="evenodd" clip-rule="evenodd" d="M242.642 76.8319C242.117 78.199 241.163 78.967 237.678 80.7466C234.457 82.4141 233.182 83.2762 233.182 83.7633C233.182 84.1936 233.689 84.0637 234.624 83.3883C235.131 83.0327 236.704 82.1705 238.146 81.4399C241.312 79.8665 242.53 78.9297 243.186 77.6178C243.767 76.4568 243.804 75.9697 243.317 75.9697C243.072 75.9712 242.866 76.2327 242.642 76.8319Z" fill="#0F0B0D"/>
<path fill-rule="evenodd" clip-rule="evenodd" d="M101.712 80.4308C100.981 82.6795 101.188 83.9525 102.798 87.2502C103.678 89.0671 104.166 89.6663 104.521 89.3107C104.708 89.1239 104.671 88.955 104.427 88.5606C103.266 86.7437 102.048 83.6716 102.048 82.5465C102.048 82.1536 102.217 81.3482 102.423 80.7296C102.816 79.606 102.798 79.1563 102.367 79.1563C102.237 79.1562 101.956 79.7001 101.712 80.4308Z" fill="#0F0B0D"/>
<path fill-rule="evenodd" clip-rule="evenodd" d="M224.489 90.6217C222.99 95.137 221.904 97.6846 220.311 100.307C218.813 102.798 214.86 108.68 213.323 110.723C210.269 114.769 205.399 119.64 201.334 122.693C191.161 130.355 184.642 132.715 172.578 133.034C162.575 133.315 155.176 131.704 146.632 127.377C142.248 125.167 136.647 121.307 132.207 117.448C131.027 116.417 129.041 114.732 127.805 113.72C123.235 109.935 119.226 105.74 114.261 99.5209C112.481 97.2916 110.888 95.4553 110.757 95.4553C109.932 95.4553 110.345 96.0918 114.672 101.45C118.737 106.508 122.784 110.648 127.148 114.282C128.122 115.107 130.071 116.755 131.457 117.953C138.463 123.985 144.87 127.994 151.69 130.598C158.358 133.165 163.567 133.971 172.296 133.802C184.884 133.558 191.291 131.311 201.613 123.517C205.641 120.483 209.688 116.549 212.872 112.596C216.093 108.606 221.508 100.27 222.895 97.1422C224 94.6694 225.161 91.3717 225.087 90.8846C225.013 90.4528 224.601 90.266 224.489 90.6217Z" fill="#0F0B0D"/>
<path fill-rule="evenodd" clip-rule="evenodd" d="M171.587 99.5947C171.343 99.6888 171.174 99.8577 171.212 99.9697C171.268 100.119 172.373 100.194 174.639 100.213C176.494 100.251 178.76 100.325 179.679 100.419C181.235 100.569 181.327 100.551 181.253 100.213C181.196 99.9129 180.915 99.8203 179.324 99.632C177.057 99.3691 172.186 99.3511 171.587 99.5947Z" fill="#0F0B0D"/>
<path fill-rule="evenodd" clip-rule="evenodd" d="M229.117 122.281C229.286 124.267 229.698 126.439 230.859 131.685C231.851 136.144 232.171 137.23 232.638 137.511C233.069 137.792 233.257 137.248 232.957 136.611C232.376 135.394 230.334 125.971 229.959 122.843C229.773 121.138 229.696 120.932 229.378 120.932C229.023 120.932 229.005 121.026 229.117 122.281Z" fill="#0F0B0D"/>
<path fill-rule="evenodd" clip-rule="evenodd" d="M112.052 139.177C111.996 139.326 112.09 139.888 112.239 140.432C112.707 141.95 113.027 144.048 113.944 151.467C115.443 163.438 115.743 165.141 116.379 165.141C116.81 165.141 116.847 164.86 116.566 163.998C116.229 162.987 115.798 159.915 114.693 150.997C113.905 144.628 113.418 141.63 112.913 139.813C112.707 139.102 112.22 138.747 112.052 139.177Z" fill="#0F0B0D"/>
<path fill-rule="evenodd" clip-rule="evenodd" d="M187.473 147.008C186.836 148.75 184.851 150.679 182.321 151.971C179.848 153.226 178.088 153.9 177.301 153.9C176.551 153.9 176.346 154.05 176.627 154.407C177.039 154.894 178.312 154.67 180.486 153.733C183.221 152.552 184.42 151.822 185.994 150.38C187.736 148.769 189.066 146.071 188.204 145.884C187.978 145.847 187.791 146.145 187.473 147.008Z" fill="#0F0B0D"/>
<path fill-rule="evenodd" clip-rule="evenodd" d="M99.5004 175.333C99.4436 175.482 99.4436 175.708 99.5198 175.8C99.5766 175.913 100.869 176.999 102.386 178.236C105.44 180.709 107.068 182.188 112.839 187.715C118.684 193.297 121.811 195.807 122.467 195.395C122.842 195.151 122.636 194.814 121.756 194.346C120.407 193.578 117.69 191.217 112.784 186.535C106.657 180.709 106.265 180.353 102.986 177.692C99.5945 174.92 99.6513 174.958 99.5004 175.333Z" fill="#0F0B0D"/>
<path fill-rule="evenodd" clip-rule="evenodd" d="M177.524 198.486C172.747 198.936 169.337 200.097 161.432 203.919C154.726 207.16 152.74 208.022 151.354 208.34C149.311 208.827 149.162 208.884 149.162 209.165C149.162 209.727 151.672 209.277 153.976 208.303C154.575 208.059 157.779 206.561 161.094 204.968C171.323 200.097 173.851 199.329 179.697 199.348C182.9 199.348 183.256 199.385 187.078 200.136C190.937 200.904 192.324 201.035 192.379 200.642C192.398 200.361 192.023 200.249 189.625 199.799C182.02 198.393 180.372 198.205 177.524 198.486Z" fill="#0F0B0D"/>
<path fill-rule="evenodd" clip-rule="evenodd" d="M127.526 199.91C127.526 200.247 127.75 200.454 130.186 202.326C132.435 204.068 134.083 205.06 137.135 206.559C138.858 207.402 139.74 207.739 140.319 207.739C141.594 207.777 141.274 207.327 139.589 206.747C136.798 205.792 132.769 203.432 129.697 200.959C127.994 199.591 127.526 199.367 127.526 199.91Z" fill="#0F0B0D"/>
<path fill-rule="evenodd" clip-rule="evenodd" d="M199.03 203.039C198.973 203.208 199.03 203.414 199.142 203.507C200.079 204.218 205.962 204.819 209.108 204.538C210.458 204.426 210.794 204.331 210.851 204.07C210.907 203.789 210.475 203.752 206.449 203.695C203.058 203.62 201.747 203.526 200.959 203.302C200.397 203.133 199.741 202.946 199.535 202.872C199.274 202.795 199.106 202.87 199.03 203.039Z" fill="#0F0B0D"/>
</svg>
